<?xml version="1.0" encoding="UTF-8"?>
<svg id="icon--close" viewBox="0 0 26 27" xmlns="http://www.w3.org/2000/svg">
  <!-- legacy icon, replace with Sketch/Abstract export when possible -->
  <path d="M16.324 13.704l9.015 9.076a2.377 2.377 0 0 1 0 3.345 2.339 2.339 0 0 1-3.323 0l-9.015-9.075-9.015 9.075a2.339 2.339 0 0 1-3.323 0 2.377 2.377 0 0 1 0-3.345l9.015-9.076L.663 4.63a2.377 2.377 0 0 1 0-3.345 2.339 2.339 0 0 1 3.323 0l9.015 9.075 9.015-9.075a2.339 2.339 0 0 1 3.323 0 2.377 2.377 0 0 1 0 3.345l-9.015 9.075z"/>
</svg>