<?xml version="1.0" encoding="UTF-8"?>
<svg width="40px" height="40px" viewBox="0 0 40 40" version="1.1" xmlns="http://www.w3.org/2000/svg" xmlns:xlink="http://www.w3.org/1999/xlink">
    <title>6663EB5C-2609-4FE5-ABE4-B912695D3475@1x</title>
    <g id="Symbols" stroke="none" stroke-width="1" fill="none" fill-rule="evenodd">
        <g id="icon-feedback" fill="#000000" fill-rule="nonzero">
            <path d="M17.5,11 C21.7914219,11 25.478275,13.6167114 25.9492503,17.2169546 C28.8292269,17.8765982 31,19.9718704 31,22.6363636 C31,23.442665 30.796017,24.2086106 30.4243767,24.9013895 L30.316,25.091 L30.3551205,25.1255371 C30.7191928,25.4686421 30.9694659,25.943083 30.9974599,26.5114135 L30.9990813,26.6846918 C30.9801009,27.3193702 30.7095777,27.7922201 30.3356504,28.1459512 C30.154653,28.3171728 29.9657546,28.4420565 29.7625932,28.5456348 C29.3028588,28.7800221 28.7076133,28.921686 28.0735468,28.9759477 C26.9363237,29.0732683 25.7922132,28.8986811 24.8115723,28.3758474 L24.593,28.251 L24.3775042,28.2648015 L24,28.2727273 C21.3281623,28.2727273 18.8738336,27.0776696 17.69958,25.1175664 L17.630944,24.998 L17.5,25 C17.3742106,25 17.2487324,24.9977682 17.1236328,24.9933192 L16.7495367,24.9733349 L16.6,24.96 L16.3771463,25.1041344 C15.2410721,25.7983488 13.88424,26.0667461 12.5189054,25.9889513 L12.5189054,25.9889513 L12.2457881,25.9688001 C11.4810265,25.899578 10.7675928,25.7199906 10.2402988,25.4356496 C9.53861059,25.0572674 9.02930068,24.5476696 9.00083143,23.5407739 C8.97992201,22.8012531 9.33049206,22.191467 9.84424222,21.8038592 C9.95262613,21.7220871 10.062166,21.6538553 10.1737606,21.5963155 L10.1737606,21.5963155 L10.188,21.589 L10.0787668,21.4339229 C9.43549388,20.4866745 9.0567095,19.4074397 9.00587945,18.2647843 L9.00587945,18.2647843 L8.99994403,18 C8.99994403,14.0024287 12.9031573,11 17.5,11 Z M25.865629,19.2615753 L25.849035,19.3409443 C25.2448664,21.9753473 22.8889723,24.0014755 19.9019456,24.7184814 C20.8036792,25.6579718 22.3031257,26.2727273 24,26.2727273 C24.3965846,26.2727273 24.7823852,26.2391477 25.1523195,26.1756848 C25.8658437,26.8653995 26.9101274,27.0338796 27.730785,26.9946927 L27.9030153,26.9832312 L28.1458734,26.9556192 C28.2491752,26.9408542 28.3458929,26.9229939 28.4344102,26.9029524 L28.5608338,26.8713685 L28.7247536,26.819358 C28.9926703,26.7209062 29.0895364,26.6050756 28.9046956,26.5344549 L28.8406814,26.5146876 L28.701949,26.4721134 C28.2446297,26.3059108 27.8385336,25.8968212 27.4836606,25.2448449 C28.418918,24.5840711 29,23.6595697 29,22.6363636 C29,21.1076827 27.7029854,19.7993175 25.865629,19.2615753 Z M17.5,13 C13.9101491,13 11,15.2385763 11,18 C11,19.4069084 11.7554066,20.6780978 12.9712413,21.5866617 C12.4637728,22.572776 11.8757305,23.1547872 11.2071141,23.3326955 L11.2071141,23.3326955 L11.1427387,23.3526628 C10.8909616,23.4440266 10.989171,23.5962671 11.3049398,23.7301603 L11.3049398,23.7301603 L11.465645,23.790366 L11.654353,23.8462353 C11.7888496,23.8816514 11.9400859,23.9130226 12.1042041,23.9380411 L12.1042041,23.9380411 L12.3595608,23.970516 C13.4597846,24.0835717 14.987865,23.9034008 16.0019846,22.8665666 C16.4828992,22.9538281 16.98444,23 17.5,23 C21.0898509,23 24,20.7614237 24,18 C24,15.2385763 21.0898509,13 17.5,13 Z" id="Combined-Shape"></path>
        </g>
    </g>
</svg>