<?xml version="1.0" encoding="UTF-8"?>
<svg width="40px" height="40px" viewBox="0 0 40 40" version="1.1" xmlns="http://www.w3.org/2000/svg" xmlns:xlink="http://www.w3.org/1999/xlink">
    <title>A335B8CB-D0F5-4D93-876B-D419219A279C@1x</title>
    <g id="Symbols" stroke="none" stroke-width="1" fill="none" fill-rule="evenodd">
        <g id="icon-circle-question" fill="#000000" fill-rule="nonzero">
            <path d="M20,9 C13.9242187,9 9,13.9242187 9,20 C9,26.0757812 13.9242187,31 20,31 C26.0757812,31 31,26.0757812 31,20 C31,13.9242188 26.0757812,9 20,9 Z M20,26.1875 C19.2265625,26.1875 18.625,25.5859375 18.625,24.8125 C18.625,24.0390625 19.1878906,23.4375 20,23.4375 C20.7347656,23.4375 21.375,24.0390625 21.375,24.8125 C21.375,25.5859375 20.7347656,26.1875 20,26.1875 Z M22.9691406,20.0859375 L21.03125,21.2890625 L21.03125,21.375 C21.03125,21.9335938 20.5585938,22.40625 20,22.40625 C19.4414062,22.40625 18.96875,21.9335938 18.96875,21.375 L18.96875,20.6875 C18.96875,20.34375 19.140625,20 19.484375,19.7851562 L21.9335938,18.3242188 C22.234375,18.1523438 22.40625,17.8515625 22.40625,17.5078125 C22.40625,16.9921875 21.9378906,16.5625 21.4222656,16.5625 L19.2265625,16.5625 C18.6722656,16.5625 18.28125,16.9921875 18.28125,17.5078125 C18.28125,18.0664062 17.8085938,18.5390625 17.25,18.5390625 C16.6914062,18.5390625 16.21875,18.0664062 16.21875,17.5078125 C16.21875,15.8320312 17.5507812,14.5 19.1878906,14.5 L21.3835937,14.5 C23.1367188,14.5 24.46875,15.8320312 24.46875,17.5078125 C24.46875,18.5390625 23.9101562,19.5273438 22.9691406,20.0859375 Z" id="Shape"></path>
        </g>
    </g>
</svg>