<?xml version="1.0" encoding="UTF-8"?>
<svg id="Layer_1" xmlns="http://www.w3.org/2000/svg" viewBox="0 0 378.6 80">
  <defs>
    <style>
      .cls-1 {
        isolation: isolate;
      }

      .cls-2 {
        fill: #fff;
      }

      .cls-3 {
        fill: #1c1e23;
      }
    </style>
  </defs>
  <circle class="cls-2" cx="39.82" cy="40.48" r="38.2"/>
  <path class="cls-3" d="M46.22,35.28v31.1h-12.7v-31.1H14.52v-12.7h50.5v12.7h-18.9s.1,0,.1,0ZM39.82,80.38C17.72,80.38-.18,62.48-.18,40.48S17.72.48,39.82.48s40,17.9,40,40-17.9,40-40,40M39.82,76.88c20.1,0,36.4-16.3,36.4-36.4S59.92,3.98,39.82,3.98,3.32,20.28,3.32,40.48s16.3,36.4,36.4,36.4"/>
  <g class="cls-1">
    <path class="cls-3" d="M123.16,11.93c5.64,0,10.48,1.14,14.53,3.43,4.04,2.29,7.11,5.54,9.18,9.76,2.08,4.22,3.12,9.17,3.12,14.86,0,4.21-.57,8.03-1.71,11.47-1.14,3.44-2.84,6.42-5.12,8.94s-5.07,4.45-8.39,5.79-7.11,2-11.39,2-8.07-.69-11.43-2.06-6.17-3.31-8.42-5.81c-2.25-2.5-3.95-5.5-5.1-9.02-1.15-3.51-1.73-7.31-1.73-11.39s.6-8.02,1.8-11.5,2.94-6.46,5.21-8.91,5.05-4.32,8.31-5.62,6.98-1.95,11.13-1.95ZM138.82,39.91c0-3.98-.64-7.43-1.93-10.35-1.29-2.92-3.12-5.13-5.51-6.62-2.39-1.5-5.13-2.25-8.22-2.25-2.2,0-4.24.42-6.1,1.24-1.87.83-3.48,2.04-4.82,3.62-1.35,1.58-2.41,3.61-3.19,6.07-.78,2.46-1.17,5.23-1.17,8.29s.39,5.89,1.17,8.39c.78,2.5,1.88,4.57,3.3,6.22,1.42,1.65,3.06,2.88,4.9,3.69s3.87,1.22,6.07,1.22c2.82,0,5.41-.71,7.77-2.12s4.24-3.59,5.64-6.53c1.4-2.94,2.1-6.57,2.1-10.87Z"/>
    <path class="cls-3" d="M184.03,43.99h-3.86v17.48c0,2.3-.51,4-1.52,5.08-1.01,1.09-2.34,1.63-3.97,1.63-1.76,0-3.12-.57-4.08-1.71s-1.45-2.81-1.45-5.01V19.61c0-2.38.53-4.09,1.6-5.16s2.78-1.6,5.16-1.6h17.92c2.47,0,4.59.11,6.35.32,1.76.21,3.34.64,4.75,1.28,1.71.72,3.22,1.74,4.53,3.08,1.31,1.34,2.31,2.89,2.99,4.66.68,1.77,1.02,3.64,1.02,5.62,0,4.06-1.14,7.3-3.43,9.72-2.29,2.42-5.76,4.14-10.41,5.16,1.95,1.04,3.82,2.57,5.6,4.6,1.78,2.03,3.37,4.19,4.77,6.48,1.4,2.29,2.49,4.35,3.27,6.2.78,1.84,1.17,3.11,1.17,3.8s-.23,1.43-.69,2.13c-.46.71-1.08,1.26-1.87,1.67-.79.41-1.71.61-2.75.61-1.24,0-2.28-.29-3.12-.87-.84-.58-1.57-1.32-2.17-2.21-.61-.89-1.43-2.2-2.47-3.93l-4.42-7.35c-1.58-2.7-3-4.75-4.25-6.16-1.25-1.41-2.52-2.38-3.8-2.89-1.29-.52-2.91-.78-4.86-.78ZM190.34,21.13h-10.17v14.96h9.87c2.65,0,4.87-.23,6.68-.69,1.81-.46,3.18-1.24,4.14-2.34.95-1.1,1.43-2.62,1.43-4.55,0-1.51-.38-2.84-1.15-3.99-.77-1.15-1.83-2.01-3.19-2.58-1.29-.54-3.82-.82-7.61-.82Z"/>
    <path class="cls-3" d="M256.92,67.26h-16.62c-2.4,0-4.11-.54-5.14-1.61-1.03-1.08-1.54-2.79-1.54-5.14V19.61c0-2.4.53-4.12,1.58-5.18s2.75-1.58,5.1-1.58h17.63c2.6,0,4.85.16,6.75.48,1.9.32,3.61.94,5.12,1.86,1.29.77,2.42,1.74,3.41,2.91.99,1.18,1.74,2.47,2.26,3.9.52,1.42.78,2.93.78,4.51,0,5.44-2.72,9.43-8.16,11.95,7.15,2.28,10.72,6.71,10.72,13.29,0,3.04-.78,5.78-2.34,8.22-1.56,2.44-3.66,4.24-6.31,5.4-1.66.69-3.56,1.18-5.71,1.47-2.15.29-4.66.43-7.53.43ZM244.64,21.13v14.06h10.09c2.75,0,4.87-.26,6.36-.78,1.5-.52,2.64-1.51,3.43-2.97.62-1.04.93-2.2.93-3.49,0-2.75-.98-4.57-2.93-5.47-1.96-.9-4.94-1.35-8.94-1.35h-8.94ZM256.1,43.1h-11.47v15.88h11.84c7.45,0,11.17-2.68,11.17-8.05,0-2.75-.96-4.74-2.89-5.97-1.93-1.24-4.81-1.86-8.65-1.86Z"/>
    <path class="cls-3" d="M298.6,61.47V18.61c0-2.23.51-3.9,1.52-5.01s2.33-1.67,3.93-1.67,3,.55,4.03,1.65c1.03,1.1,1.54,2.78,1.54,5.03v42.86c0,2.25-.51,3.93-1.54,5.05s-2.37,1.67-4.03,1.67-2.89-.56-3.92-1.69-1.54-2.8-1.54-5.03Z"/>
    <path class="cls-3" d="M367.07,21.95h-12.02v39.52c0,2.28-.51,3.96-1.52,5.07s-2.33,1.65-3.93,1.65-2.96-.56-3.99-1.67-1.54-2.79-1.54-5.05V21.95h-12.02c-1.88,0-3.28-.41-4.19-1.24-.92-.83-1.37-1.92-1.37-3.28s.48-2.52,1.43-3.34,2.33-1.22,4.14-1.22h35.03c1.91,0,3.32.42,4.25,1.26.93.84,1.39,1.94,1.39,3.3s-.47,2.46-1.41,3.28c-.94.83-2.35,1.24-4.23,1.24Z"/>
  </g>
</svg>