<?xml version="1.0" encoding="UTF-8"?>
<svg width="40px" height="40px" viewBox="0 0 40 40" version="1.1" xmlns="http://www.w3.org/2000/svg" xmlns:xlink="http://www.w3.org/1999/xlink">
    <title>F87D3ECE-B020-47D8-8AD9-DBE3ACEBBF79@1x</title>
    <g id="Symbols" stroke="none" stroke-width="1" fill="none" fill-rule="evenodd">
        <g id="icon-nav-account" fill="#000000">
            <path d="M30,23 C31.6568542,23 33,21.6568542 33,20 C33,18.3431458 31.6568542,17 30,17 C28.3431458,17 27,18.3431458 27,20 C27,21.6568542 28.3431458,23 30,23 Z M20,23 C21.6568542,23 23,21.6568542 23,20 C23,18.3431458 21.6568542,17 20,17 C18.3431458,17 17,18.3431458 17,20 C17,21.6568542 18.3431458,23 20,23 Z M10,23 C11.6568542,23 13,21.6568542 13,20 C13,18.3431458 11.6568542,17 10,17 C8.34314575,17 7,18.3431458 7,20 C7,21.6568542 8.34314575,23 10,23 Z" id="Account"></path>
        </g>
    </g>
</svg>