<?xml version="1.0" encoding="UTF-8"?>
<svg width="128px" height="128px" viewBox="0 0 128 128" version="1.1" xmlns="http://www.w3.org/2000/svg" xmlns:xlink="http://www.w3.org/1999/xlink">
    <title>B3FCDD73-B6ED-4919-8F0F-9591074221FB@1x</title>
    <g id="Icons" stroke="none" stroke-width="1" fill="none" fill-rule="evenodd">
        <g id="icon/shield-halved" fill="#000000" fill-rule="nonzero">
            <path d="M63.6129985,0 C64.7955684,0 65.9278162,0.255380145 66.9845808,0.734312165 L114.362861,20.8160197 C119.898294,23.1616553 124.04987,28.6121782 124,34.9727977 C123.873742,60.1387269 113.608029,105.769258 70.2555189,126.510408 C66.0536215,128.496531 61.1723755,128.496531 56.9704781,126.510408 C13.6053877,105.769258 3.34973876,60.1387269 3,34.9727977 C3.19374018,28.6121782 7.33273488,23.1616553 12.8631363,20.8160197 L60.2665772,0.734312165 C61.2981808,0.255380145 62.4555896,0 63.6129985,0 L63.6129985,0 Z M64,111 C98.275,94.2129725 107.775,57.0452874 108,34.7547285 L64,16 L64,111 Z" id="Shape"></path>
        </g>
    </g>
</svg>