<?xml version="1.0" encoding="UTF-8"?>
<svg width="40px" height="40px" viewBox="0 0 20 14.3" version="1.1" xmlns="http://www.w3.org/2000/svg" xmlns:xlink="http://www.w3.org/1999/xlink">
    <!-- legacy icon, replace with Sketch/Abstract export when possible -->
    <g id="icon/sign-out" fill="#000000" fill-rule="nonzero">
        <path d="M7.2 14.3c-1.8 0-3.7-.7-5.1-2.1C.7 10.9 0 9.1 0 7.2s.7-3.7 2.1-5.1c2.8-2.8 7.3-2.8 10.1 0 .5.4.5 1.2 0 1.6-.5.5-1.2.5-1.6 0-1.9-1.9-5-1.9-6.9 0-.9.9-1.4 2.2-1.4 3.5 0 1.3.5 2.5 1.4 3.4 1.9 1.9 5 1.9 6.9 0 .5-.5 1.2-.5 1.6 0 .5.5.5 1.2 0 1.6-1.4 1.4-3.2 2.1-5 2.1z"/>
        <path d="M19.6 6.5l-3.2-3.1c-.5-.4-1.2-.4-1.6 0-.4.5-.4 1.2 0 1.6l1 .9H8.7c-.7.1-1.2.6-1.2 1.3S8 8.3 8.7 8.3H16l-1.1.9c-.5.4-.6 1.1-.2 1.6.2.3.6.4.9.4.3 0 .5-.1.7-.3l3.2-2.7c.3-.1.5-.5.5-.8 0-.3-.1-.6-.4-.9z"/>
    </g>
</svg>